<svg fill="none" height="19" viewBox="0 0 135 19" width="135" xmlns="http://www.w3.org/2000/svg"><path d="m3.39.24v8.604c.69-2.712 2.508-4.434 4.908-4.434 3.264 0 5.598 2.91 5.598 6.972s-2.334 6.978-5.598 6.978c-2.4 0-4.218-1.722-4.908-4.44v4.08h-2.43v-17.76zm0 11.142c0 3.018 1.536 4.842 4.08 4.842 2.592 0 3.996-1.704 3.996-4.842s-1.404-4.836-3.996-4.836c-2.544 0-4.08 1.818-4.08 4.836zm15.0347-11.142v17.76h-2.43v-17.76zm2.1094 11.142c0-4.182 2.592-6.972 6.468-6.972s6.468 2.79 6.468 6.972-2.592 6.978-6.468 6.978-6.468-2.796-6.468-6.978zm2.43 0c0 2.958 1.542 4.782 4.044 4.782 2.496 0 4.032-1.824 4.032-4.782s-1.536-4.776-4.032-4.776c-2.502 0-4.044 1.818-4.044 4.776zm14.73 0c0 2.958 1.542 4.782 4.044 4.782 2.19 0 3.354-1.404 3.678-3.15h2.43c-.396 3.006-2.568 5.346-6.114 5.346-3.876 0-6.468-2.796-6.468-6.978s2.592-6.972 6.468-6.972c3.552 0 5.724 2.34 6.114 5.346h-2.43c-.318-1.746-1.482-3.15-3.678-3.15-2.502 0-4.044 1.818-4.044 4.776zm24.0924-6.612-7.374 6.762 8.01 6.468h-3.48l-6.57-5.484v5.484h-2.43v-17.76h2.43v10.41l6.294-5.88zm10.7647 6.072v7.158h-2.43v-13.23h2.43v3.822c.642-2.604 2.442-4.182 4.914-4.182 3.012 0 4.812 2.352 4.812 6.192v7.398h-2.43v-7.398c0-2.652-1.122-3.996-3.396-3.996-2.442 0-3.9 1.56-3.9 4.236zm11.7657.54c0-4.182 2.592-6.972 6.468-6.972s6.468 2.79 6.468 6.972-2.592 6.978-6.468 6.978-6.468-2.796-6.468-6.978zm2.43 0c0 2.958 1.542 4.782 4.044 4.782 2.496 0 4.032-1.824 4.032-4.782s-1.536-4.776-4.032-4.776c-2.502 0-4.044 1.818-4.044 4.776zm20.5421 6.516c-1.02.306-1.932.456-2.736.456-2.634 0-4.074-1.626-4.074-4.734v-6.81h-1.7996v-2.04h1.7996v-3.048h2.43v3.048h4.38v2.04h-4.38v6.816c0 1.752.636 2.568 2.052 2.568.552 0 1.314-.126 2.328-.396zm11.501-4.284h2.43c-.684 2.964-2.976 4.746-6.072 4.746-3.894 0-6.504-2.808-6.504-6.996 0-4.164 2.58-6.954 6.426-6.954 3.786 0 6.21 2.7 6.21 6.918 0 .306-.012.588-.042.942h-10.116c.282 2.424 1.794 3.894 4.086 3.894 1.752 0 2.934-.864 3.582-2.55zm-7.62-3.444h7.596c-.324-2.298-1.62-3.564-3.684-3.564-2.118 0-3.546 1.338-3.912 3.564zm17.575-5.76c3.606 0 5.658 1.692 5.658 4.362h-2.376c0-1.356-1.158-2.262-3.282-2.262-1.914 0-3.222.738-3.222 1.842 0 1.254 1.68 1.512 3.156 1.746l.888.138c2.208.348 5.322.84 5.322 4.044 0 2.61-2.07 4.08-5.922 4.08-4.014 0-6.048-1.596-6.048-4.47h2.37c0 1.518 1.176 2.37 3.672 2.37 2.25 0 3.558-.69 3.558-1.926 0-1.44-1.776-1.758-3.492-2.052l-.882-.15c-2.01-.342-4.992-.84-4.992-3.726 0-2.436 2.124-3.996 5.592-3.996z" fill="#ff5210"/></svg>